<svg width="327" height="49" viewBox="0 0 327 49" fill="none" xmlns="http://www.w3.org/2000/svg">
<g clip-path="url(#clip0_162_7)">
<path d="M86.5768 40.8547C86.5768 40.8547 94.2868 41.0792 106.751 41.3678V40.3096C94.2868 40.6623 86.5768 40.8547 86.5768 40.8547Z" fill="url(#paint0_linear_162_7)"/>
<path d="M327 40.8547C327 40.8547 318.487 40.6302 304.93 40.2775V41.4319C318.487 41.1113 327 40.8547 327 40.8547Z" fill="url(#paint1_linear_162_7)"/>
<path d="M113.016 43.4843V38.0648H115.04C115.489 38.0648 115.875 38.1289 116.228 38.2893C116.549 38.4496 116.806 38.642 116.967 38.9306C117.128 39.2192 117.224 39.5399 117.224 39.9568C117.224 40.3737 117.128 40.6944 116.967 40.983C116.806 41.2716 116.549 41.4961 116.228 41.6243C115.907 41.7847 115.521 41.8488 115.04 41.8488H113.401L113.754 41.4961V43.5164H113.016V43.4843ZM113.787 41.5281L113.433 41.1433H115.04C115.521 41.1433 115.875 41.0471 116.132 40.8226C116.389 40.5982 116.485 40.3096 116.485 39.9247C116.485 39.5399 116.357 39.2513 116.132 39.0268C115.875 38.8024 115.521 38.7062 115.04 38.7062H113.433L113.787 38.3213V41.5281Z" fill="white"/>
<path d="M119.473 43.4843V38.0648H121.497C122.171 38.0648 122.717 38.2251 123.103 38.5779C123.488 38.8986 123.681 39.3796 123.681 39.9568C123.681 40.3416 123.585 40.6944 123.424 40.983C123.263 41.2716 123.006 41.464 122.685 41.6243C122.364 41.7847 121.978 41.8488 121.497 41.8488H119.858L120.212 41.4961V43.5164H119.473V43.4843ZM120.212 41.5281L119.858 41.1433H121.464C121.946 41.1433 122.3 41.0471 122.557 40.8226C122.814 40.5982 122.91 40.3096 122.91 39.9247C122.91 39.5399 122.782 39.2513 122.557 39.0268C122.3 38.8024 121.946 38.7062 121.464 38.7062H119.858L120.212 38.3213V41.5281ZM122.974 43.4843L121.657 41.5281H122.46L123.81 43.4843H122.974Z" fill="white"/>
<path d="M126.026 43.4843V38.0648H129.72V38.7382H126.765V42.8109H129.817V43.4843H126.026ZM126.701 41.0471V40.3737H129.399V41.0471H126.701Z" fill="white"/>
<path d="M134.475 43.5164C134.09 43.5164 133.704 43.4522 133.383 43.324C133.03 43.1957 132.773 43.0033 132.516 42.7467C132.259 42.4902 132.066 42.2016 131.937 41.8809C131.809 41.5602 131.712 41.1754 131.712 40.7585C131.712 40.3416 131.777 39.9889 131.937 39.6361C132.066 39.3154 132.259 38.9948 132.516 38.7703C132.773 38.5137 133.062 38.3213 133.383 38.1931C133.736 38.0648 134.09 38.0007 134.475 38.0007C134.893 38.0007 135.246 38.0648 135.6 38.2251C135.953 38.3534 136.242 38.5779 136.467 38.8665L135.985 39.3475C135.792 39.123 135.567 38.9627 135.31 38.8665C135.053 38.7703 134.796 38.7062 134.507 38.7062C134.218 38.7062 133.929 38.7703 133.672 38.8665C133.415 38.9627 133.19 39.123 133.03 39.3154C132.837 39.5079 132.708 39.7323 132.612 39.9889C132.516 40.2454 132.451 40.534 132.451 40.8226C132.451 41.1113 132.516 41.3999 132.612 41.6564C132.708 41.913 132.869 42.1374 133.03 42.3298C133.222 42.5223 133.415 42.6505 133.672 42.7788C133.929 42.875 134.186 42.9391 134.507 42.9391C134.796 42.9391 135.053 42.875 135.31 42.7788C135.567 42.6826 135.792 42.5223 135.985 42.2978L136.467 42.7788C136.242 43.0674 135.953 43.2598 135.6 43.4202C135.278 43.4522 134.893 43.5164 134.475 43.5164Z" fill="white"/>
<path d="M138.587 43.4843V38.0648H139.326V43.4843H138.587Z" fill="white"/>
<path d="M143.566 43.5164C143.181 43.5164 142.795 43.4522 142.41 43.324C142.056 43.1957 141.767 43.0353 141.542 42.8429L141.832 42.2336C142.024 42.426 142.281 42.5543 142.603 42.6826C142.924 42.8109 143.245 42.875 143.566 42.875C143.888 42.875 144.112 42.8429 144.305 42.7788C144.498 42.7147 144.626 42.6185 144.723 42.4902C144.819 42.3619 144.851 42.2336 144.851 42.0733C144.851 41.8809 144.787 41.7526 144.691 41.6243C144.562 41.4961 144.434 41.4319 144.241 41.3357C144.048 41.2716 143.855 41.2075 143.631 41.1433C143.406 41.0792 143.181 41.0471 142.956 40.9509C142.731 40.8868 142.538 40.7906 142.346 40.6944C142.153 40.5982 141.992 40.4378 141.896 40.2454C141.767 40.053 141.735 39.8285 141.735 39.5399C141.735 39.2513 141.799 38.9948 141.96 38.7703C142.121 38.5458 142.313 38.3534 142.603 38.1931C142.892 38.0648 143.277 37.9686 143.727 37.9686C144.048 37.9686 144.337 38.0007 144.626 38.0969C144.916 38.1931 145.173 38.2893 145.397 38.4496L145.14 39.0589C144.916 38.8986 144.691 38.8024 144.434 38.7382C144.177 38.6741 143.952 38.642 143.695 38.642C143.406 38.642 143.149 38.6741 142.956 38.7703C142.763 38.8344 142.635 38.9627 142.538 39.091C142.442 39.2192 142.41 39.3796 142.41 39.5399C142.41 39.7323 142.474 39.8927 142.57 39.9889C142.699 40.1171 142.827 40.1813 143.02 40.2454C143.213 40.3096 143.406 40.3737 143.631 40.4378C143.855 40.502 144.08 40.5661 144.305 40.6302C144.53 40.6944 144.723 40.7906 144.916 40.8868C145.108 40.983 145.269 41.1433 145.365 41.3357C145.494 41.5281 145.526 41.7526 145.526 42.0412C145.526 42.3298 145.462 42.5543 145.301 42.8109C145.173 43.0353 144.948 43.2277 144.626 43.3881C144.402 43.4522 144.016 43.5164 143.566 43.5164Z" fill="white"/>
<path d="M147.807 43.4843V38.0648H148.546V43.4843H147.807Z" fill="white"/>
<path d="M153.59 43.5164C153.204 43.5164 152.819 43.4522 152.465 43.2919C152.112 43.1636 151.823 42.9712 151.598 42.7147C151.341 42.4581 151.148 42.1695 151.02 41.8488C150.891 41.5281 150.795 41.1433 150.795 40.7585C150.795 40.3737 150.859 39.9889 151.02 39.6682C151.148 39.3475 151.341 39.0268 151.598 38.8024C151.855 38.5458 152.144 38.3534 152.465 38.2251C152.819 38.0969 153.172 38.0007 153.59 38.0007C153.975 38.0007 154.361 38.0648 154.682 38.1931C155.035 38.3213 155.324 38.5137 155.549 38.7703C155.806 39.0268 155.999 39.3154 156.127 39.6682C156.256 40.0209 156.32 40.3737 156.32 40.7585C156.32 41.1754 156.256 41.5281 156.127 41.8809C155.999 42.2016 155.806 42.5223 155.549 42.7467C155.292 43.0033 155.003 43.1957 154.682 43.324C154.361 43.4522 153.975 43.5164 153.59 43.5164ZM153.59 42.8429C153.879 42.8429 154.168 42.7788 154.393 42.6826C154.65 42.5864 154.842 42.426 155.035 42.2336C155.228 42.0412 155.356 41.8168 155.453 41.5602C155.549 41.3037 155.613 41.0471 155.613 40.7264C155.613 40.4058 155.549 40.1492 155.453 39.8927C155.356 39.6361 155.196 39.4116 155.035 39.2192C154.842 39.0268 154.65 38.8665 154.393 38.7703C154.136 38.6741 153.879 38.6099 153.59 38.6099C153.3 38.6099 153.043 38.6741 152.786 38.7703C152.529 38.8665 152.337 39.0268 152.144 39.2192C151.951 39.4116 151.823 39.6361 151.726 39.8927C151.63 40.1492 151.566 40.4058 151.566 40.7264C151.566 41.0471 151.63 41.3037 151.726 41.5602C151.823 41.8168 151.983 42.0412 152.144 42.2336C152.337 42.426 152.529 42.5543 152.786 42.6826C153.011 42.7788 153.3 42.8429 153.59 42.8429Z" fill="white"/>
<path d="M158.633 43.4843V38.0648H159.243L162.713 42.5223H162.392V38.0648H163.131V43.4843H162.52L159.051 39.0268H159.372V43.4843H158.633Z" fill="white"/>
<path d="M169.973 43.4843V38.7382H168.174V38.0648H172.511V38.7382H170.712V43.4843H169.973Z" fill="white"/>
<path d="M173.411 43.4843L175.788 38.0648H176.527L178.904 43.4843H178.133L175.981 38.4817H176.27L174.15 43.4522H173.411V43.4843ZM174.407 42.1054L174.599 41.4961H177.555L177.78 42.1054H174.407Z" fill="white"/>
<path d="M180.767 43.4843V38.0648H181.506V42.8109H184.333V43.4843H180.767Z" fill="white"/>
<path d="M186.325 43.4843V38.0648H190.019V38.7382H187.064V42.8109H190.115V43.4843H186.325ZM186.999 41.0471V40.3737H189.698V41.0471H186.999Z" fill="white"/>
<path d="M192.461 43.4843V38.0648H193.071L196.541 42.5223H196.219V38.0648H196.958V43.4843H196.348L192.878 39.0268H193.2V43.4843H192.461Z" fill="white"/>
<path d="M200.685 43.4843V38.7382H198.886V38.0648H203.19V38.7382H201.424V43.4843H200.685Z" fill="white"/>
<path d="M204.989 43.5164C204.861 43.5164 204.732 43.4522 204.636 43.356C204.54 43.2598 204.475 43.1315 204.475 42.9712C204.475 42.8109 204.54 42.6826 204.636 42.5864C204.732 42.4902 204.861 42.426 204.989 42.426C205.118 42.426 205.246 42.4902 205.343 42.5864C205.439 42.6826 205.471 42.8109 205.471 42.9712C205.471 43.1315 205.407 43.2598 205.343 43.356C205.246 43.4522 205.118 43.5164 204.989 43.5164Z" fill="white"/>
<path d="M213.213 43.5164C212.828 43.5164 212.442 43.4522 212.121 43.324C211.768 43.1957 211.511 43.0033 211.254 42.7467C210.997 42.4902 210.804 42.2016 210.676 41.8809C210.547 41.5602 210.451 41.1754 210.451 40.7585C210.451 40.3416 210.515 39.9889 210.676 39.6361C210.804 39.3154 210.997 38.9948 211.254 38.7703C211.511 38.5137 211.8 38.3213 212.121 38.1931C212.475 38.0648 212.828 38.0007 213.213 38.0007C213.631 38.0007 213.984 38.0648 214.338 38.2251C214.691 38.3534 214.98 38.5779 215.205 38.8665L214.723 39.3475C214.531 39.123 214.306 38.9627 214.049 38.8665C213.792 38.7703 213.535 38.7062 213.246 38.7062C212.956 38.7062 212.667 38.7703 212.41 38.8665C212.153 38.9627 211.928 39.123 211.768 39.3154C211.575 39.5079 211.447 39.7323 211.35 39.9889C211.254 40.2454 211.19 40.534 211.19 40.8226C211.19 41.1113 211.254 41.3999 211.35 41.6564C211.447 41.913 211.607 42.1374 211.768 42.3298C211.961 42.5223 212.153 42.6505 212.41 42.7788C212.667 42.875 212.924 42.9391 213.246 42.9391C213.535 42.9391 213.792 42.875 214.049 42.7788C214.306 42.6826 214.531 42.5223 214.723 42.2978L215.205 42.7788C214.98 43.0674 214.691 43.2598 214.338 43.4202C213.984 43.4522 213.631 43.5164 213.213 43.5164Z" fill="white"/>
<path d="M216.394 43.4843L218.771 38.0648H219.51L221.887 43.4843H221.084L218.996 38.4817H219.285L217.165 43.4522H216.394V43.4843ZM217.39 42.1054L217.582 41.4961H220.538L220.763 42.1054H217.39Z" fill="white"/>
<path d="M223.782 43.4843V38.0648H224.521V42.8109H227.348V43.4843H223.782Z" fill="white"/>
<path d="M231.589 43.5164C231.203 43.5164 230.818 43.4522 230.497 43.324C230.143 43.1957 229.854 43.0033 229.629 42.7467C229.372 42.4902 229.179 42.2016 229.051 41.8809C228.922 41.5602 228.858 41.1754 228.858 40.7585C228.858 40.3416 228.922 39.9889 229.051 39.6361C229.179 39.2834 229.372 38.9948 229.629 38.7703C229.886 38.5137 230.175 38.3213 230.497 38.1931C230.818 38.0648 231.203 38.0007 231.589 38.0007C232.006 38.0007 232.36 38.0648 232.713 38.2251C233.067 38.3534 233.356 38.5779 233.581 38.8665L233.099 39.3475C232.906 39.123 232.681 38.9627 232.424 38.8665C232.167 38.7703 231.91 38.7062 231.621 38.7062C231.332 38.7062 231.043 38.7703 230.786 38.8665C230.529 38.9627 230.304 39.123 230.143 39.3154C229.95 39.5079 229.822 39.7323 229.726 39.9889C229.629 40.2454 229.565 40.534 229.565 40.8226C229.565 41.1113 229.629 41.3999 229.726 41.6564C229.822 41.913 229.983 42.1374 230.143 42.3298C230.336 42.5223 230.561 42.6505 230.786 42.7788C231.043 42.875 231.3 42.9391 231.621 42.9391C231.91 42.9391 232.167 42.875 232.424 42.7788C232.681 42.6826 232.906 42.5223 233.099 42.2978L233.581 42.7788C233.356 43.0674 233.034 43.2598 232.713 43.4202C232.36 43.4522 231.974 43.5164 231.589 43.5164Z" fill="white"/>
<path d="M237.853 43.5164C237.179 43.5164 236.633 43.324 236.215 42.9071C235.829 42.4902 235.637 41.913 235.637 41.1113V38.0327H236.376V41.0792C236.376 41.6885 236.504 42.1374 236.761 42.394C237.018 42.6826 237.371 42.8109 237.853 42.8109C238.335 42.8109 238.689 42.6826 238.946 42.394C239.203 42.1054 239.331 41.6885 239.331 41.0792V38.0327H240.07V41.1113C240.07 41.8809 239.877 42.4902 239.492 42.9071C239.074 43.324 238.56 43.5164 237.853 43.5164Z" fill="white"/>
<path d="M242.736 43.4843V38.0648H243.475V42.8109H246.302V43.4843H242.736Z" fill="white"/>
<path d="M247.491 43.4843L249.868 38.0648H250.607L252.984 43.4843H252.181L250.061 38.4817H250.35L248.23 43.4522H247.491V43.4843ZM248.487 42.1054L248.679 41.4961H251.635L251.86 42.1054H248.487Z" fill="white"/>
<path d="M255.651 43.4843V38.7382H253.852V38.0648H258.156V38.7382H256.357V43.4843H255.651Z" fill="white"/>
<path d="M260.116 43.4843V38.0648H263.81V38.7382H260.855V42.8109H263.906V43.4843H260.116ZM260.79 41.0471V40.3737H263.489V41.0471H260.79Z" fill="white"/>
<path d="M266.252 43.4843V38.0648H268.436C268.982 38.0648 269.496 38.1931 269.914 38.4175C270.332 38.642 270.685 38.9627 270.91 39.3796C271.135 39.7965 271.263 40.2454 271.263 40.7906C271.263 41.3357 271.135 41.7847 270.91 42.2016C270.685 42.6185 270.332 42.9391 269.914 43.1636C269.496 43.3881 268.982 43.5164 268.436 43.5164H266.252V43.4843ZM266.991 42.8109H268.404C268.822 42.8109 269.207 42.7147 269.528 42.5543C269.85 42.394 270.107 42.1374 270.267 41.8488C270.428 41.5281 270.524 41.1754 270.524 40.7906C270.524 40.3737 270.428 40.0209 270.267 39.7323C270.107 39.4117 269.85 39.1872 269.528 39.0268C269.207 38.8665 268.822 38.7703 268.404 38.7703H266.991V42.8109Z" fill="white"/>
<path d="M276.66 43.4843V38.0648H278.684C279.359 38.0648 279.905 38.2251 280.29 38.5779C280.676 38.8986 280.869 39.3796 280.869 39.9568C280.869 40.3416 280.772 40.6944 280.612 40.983C280.451 41.2716 280.194 41.464 279.873 41.6243C279.551 41.7847 279.166 41.8488 278.684 41.8488H277.046L277.399 41.4961V43.5164H276.66V43.4843ZM277.399 41.5281L277.046 41.1433H278.652C279.134 41.1433 279.487 41.0471 279.744 40.8226C280.001 40.5982 280.098 40.3096 280.098 39.9247C280.098 39.5399 279.969 39.2513 279.744 39.0268C279.487 38.8024 279.134 38.7062 278.652 38.7062H277.046L277.399 38.3213V41.5281ZM280.162 43.4843L278.845 41.5281H279.648L280.997 43.4843H280.162Z" fill="white"/>
<path d="M283.214 43.4843V38.0648H283.952V43.4843H283.214Z" fill="white"/>
<path d="M288.193 43.5164C287.808 43.5164 287.422 43.4522 287.037 43.324C286.683 43.1957 286.394 43.0353 286.169 42.8429L286.458 42.2336C286.651 42.426 286.908 42.5543 287.229 42.6826C287.551 42.8109 287.872 42.875 288.193 42.875C288.482 42.875 288.739 42.8429 288.932 42.7788C289.125 42.7147 289.253 42.6185 289.35 42.4902C289.446 42.3619 289.478 42.2336 289.478 42.0733C289.478 41.8809 289.414 41.7526 289.317 41.6243C289.189 41.4961 289.06 41.4319 288.868 41.3357C288.675 41.2716 288.482 41.2075 288.257 41.1433C288.032 41.0792 287.808 41.0471 287.583 40.9509C287.358 40.8868 287.133 40.7906 286.972 40.6944C286.78 40.5982 286.619 40.4378 286.523 40.2454C286.426 40.053 286.362 39.8285 286.362 39.5399C286.362 39.2513 286.426 38.9948 286.587 38.7703C286.715 38.5458 286.94 38.3534 287.229 38.1931C287.518 38.0648 287.904 37.9686 288.354 37.9686C288.643 37.9686 288.964 38.0007 289.253 38.0969C289.542 38.1931 289.831 38.2893 290.024 38.4496L289.767 39.0589C289.542 38.8986 289.317 38.8024 289.06 38.7382C288.803 38.6741 288.579 38.642 288.322 38.642C288.032 38.642 287.775 38.6741 287.583 38.7703C287.39 38.8344 287.261 38.9627 287.165 39.091C287.069 39.2192 287.037 39.3796 287.037 39.5399C287.037 39.7323 287.101 39.8927 287.197 39.9889C287.326 40.1171 287.454 40.1813 287.647 40.2454C287.84 40.3096 288.032 40.3737 288.257 40.4378C288.482 40.502 288.707 40.5661 288.932 40.6302C289.157 40.6944 289.382 40.7906 289.542 40.8868C289.735 40.983 289.896 41.1433 289.992 41.3357C290.088 41.5281 290.153 41.7526 290.153 42.0412C290.153 42.3298 290.088 42.5543 289.928 42.8109C289.799 43.0353 289.574 43.2277 289.253 43.3881C289.028 43.4522 288.643 43.5164 288.193 43.5164Z" fill="white"/>
<path d="M292.401 43.4843V38.0648H296.096V38.7382H293.14V42.8109H296.192V43.4843H292.401ZM293.108 41.0471V40.3737H295.807V41.0471H293.108Z" fill="white"/>
<path d="M298.666 43.5164C298.537 43.5164 298.409 43.4522 298.312 43.356C298.216 43.2598 298.152 43.1315 298.152 42.9712C298.152 42.8109 298.216 42.6826 298.312 42.5864C298.409 42.4902 298.537 42.426 298.666 42.426C298.794 42.426 298.923 42.4902 299.019 42.5864C299.116 42.6826 299.148 42.8109 299.148 42.9712C299.148 43.1315 299.116 43.2598 299.019 43.356C298.923 43.4522 298.826 43.5164 298.666 43.5164Z" fill="white"/>
<path d="M5.68616 43.4843L5.71828 43.5164L5.68616 43.4843Z" fill="#C39739"/>
<path d="M70.8998 24.7886C70.4821 22.2552 69.4541 20.0425 67.9443 18.0223L67.6551 18.9202C69.5826 22.0308 69.2614 25.462 66.5308 29.214C63.1255 33.8959 57.343 37.9045 49.0869 41.2395C41.1842 44.4143 35.0483 44.767 26.9528 45.1839C18.4076 45.6649 12.1111 44.4143 7.99909 41.464C2.92335 37.7762 2.12022 33.6073 5.52547 28.8613C8.06334 25.3338 10.1836 23.4418 15.5806 20.267C20.9454 17.0923 26.8564 14.6551 33.1851 12.9234C38.1002 11.5766 42.437 11.0314 46.4848 10.839L49.376 9.07526C43.722 8.4339 37.1686 8.72251 29.6513 9.97317C16.9941 12.1859 8.28821 16.5471 3.53372 23.1211C0.835224 26.841 -0.321275 30.5609 0.0642245 34.2808C0.449724 37.9686 2.31297 41.0471 5.68609 43.4843H5.71822C11.1473 47.3966 20.8812 49.2245 34.9198 48.9359C51.2072 48.5831 62.1297 44.5746 67.7194 36.8783C70.4821 33.0301 71.5423 28.9895 70.8998 24.7886Z" fill="url(#paint2_linear_162_7)"/>
<path d="M70.8998 24.7886C70.4821 22.2552 69.4541 20.0425 67.9443 18.0223L67.6551 18.9202C69.5826 22.0308 69.2614 25.462 66.5308 29.214C63.1255 33.8959 57.343 37.9045 49.0869 41.2395C41.1842 44.4143 35.0483 44.767 26.9528 45.1839C18.4076 45.6649 12.1111 44.4143 7.99909 41.464C2.92335 37.7762 2.12022 33.6073 5.52547 28.8613C8.06334 25.3338 10.1836 23.4418 15.5806 20.267C20.9454 17.0923 26.8564 14.6551 33.1851 12.9234C38.1002 11.5766 42.437 11.0314 46.4848 10.839L49.376 9.07526C43.722 8.4339 37.1686 8.72251 29.6513 9.97317C16.9941 12.1859 8.28821 16.5471 3.53372 23.1211C0.835224 26.841 -0.321275 30.5609 0.0642245 34.2808C0.449724 37.9686 2.31297 41.0471 5.68609 43.4843H5.71822C11.1473 47.3966 20.8812 49.2245 34.9198 48.9359C51.2072 48.5831 62.1297 44.5746 67.7194 36.8783C70.4821 33.0301 71.5423 28.9895 70.8998 24.7886Z" fill="url(#paint3_linear_162_7)"/>
<path d="M113.016 13.0838H92.6163V16.9961H112.469V21.4856H92.6163V28.2199H86.9944V8.30563L87.2835 8.01702H112.759L113.016 8.30563V13.0838Z" fill="white"/>
<path d="M216.715 6.15707V28.2199H212.025L211.671 26.1675C207.399 28.252 201.52 29.663 196.99 27.6106C193.649 26.1034 192.75 22.0949 193.521 18.6636C195.127 11.3842 206.21 12.6027 211.511 13.6289V6.15707H216.715ZM211.479 17.7657L203.801 17.1885C201.97 17.445 199.496 17.3168 198.757 19.4653C198.275 20.8442 198.436 22.5118 199.657 23.3776C202.162 25.2055 208.652 23.4418 211.479 22.64V17.7657Z" fill="white"/>
<path d="M125.448 12.7631C131.969 12.4103 141.093 13.3724 139.712 22.4797C138.684 29.3743 126.348 29.1819 121.465 28.1878C116.967 27.2579 114.012 24.8848 114.461 19.7219C114.975 14.0779 121.015 12.9876 125.448 12.7631ZM124.002 17.445C122.171 17.6374 119.923 18.0222 119.698 20.2991C119.441 22.9287 121.304 23.6021 123.424 23.9228C125.705 24.2755 131.68 24.3717 133.544 23.0569C134.925 22.0949 135.021 19.5936 133.672 18.5353C131.969 17.0923 126.219 17.2205 124.002 17.445Z" fill="white"/>
<path d="M147.357 13.2441V21.7742C147.357 22.0628 148.321 23.2493 148.642 23.4418C151.276 25.2055 157.091 23.3776 160.014 22.8004V13.2441H165.251V28.2199H160.561L160.111 26.5524C155.87 28.284 147.229 30.3043 143.663 26.5524C143.117 25.9751 142.121 24.2114 142.121 23.4738V13.2441H147.357Z" fill="white"/>
<path d="M191.047 28.2199H185.811V19.8822C185.811 19.4012 184.943 18.2788 184.526 18.0223C181.956 16.2906 176.013 17.9902 173.153 18.6636V28.2199H168.11V13.2441H172.639L173.089 14.9437C177.105 13.0838 186.228 11.2559 189.537 14.9437C190.051 15.5209 191.079 17.5092 191.079 18.2147V28.2199H191.047Z" fill="white"/>
<path d="M253.819 28.7009H246.945L244.792 24.8848L230.079 24.7565L227.798 28.7009H220.923L233.645 8.65838L240.969 8.59424L253.819 28.7009ZM232.681 20.6518H242.062L237.275 12.9876L232.681 20.6518ZM309.46 22.5118C309.492 24.2755 311.837 24.6283 313.154 24.7565C317.17 25.1093 321.731 24.6924 325.715 24.019L326.55 27.9634C321.314 28.9575 313.893 30.0157 308.785 28.1878C304.609 26.7127 303.099 22.3194 304.609 18.1505C306.697 12.3783 318.326 12.5386 322.888 14.3344C324.366 14.9437 327 16.8678 327 18.6957V22.2552L326.743 22.5438H309.46V22.5118ZM321.731 19.5295C321.603 17.2847 318.648 17.0281 316.945 16.8999C314.632 16.7395 309.942 16.6433 309.267 19.5295H321.731ZM295.293 13.3403C292.048 13.0838 284.627 12.8593 282.025 14.9437C279.905 16.6433 280.547 20.5877 282.796 21.8063C285.816 23.4418 292.241 22.8004 295.807 23.2814C298.409 23.6342 298.023 25.2376 295.453 25.4941C291.052 25.9431 286.201 24.981 281.832 24.4038L281.093 27.9313C282.475 28.0916 283.824 28.4764 285.173 28.6688C288.675 29.1499 297.991 29.695 300.818 27.7389C302.649 26.4562 302.938 23.4738 301.653 21.678C299.308 18.4071 290.024 19.5615 286.394 18.7598C285.109 18.1505 285.462 17.1564 286.78 16.9319C289.093 16.5792 292.337 16.7075 294.682 16.8999C296.674 17.0602 298.634 17.445 300.625 17.6695L301.461 14.1099C299.437 13.9496 297.349 13.5007 295.293 13.3403ZM268.179 13.3403C267.312 13.3403 264.421 14.3024 263.489 14.6551C262.365 15.072 261.337 15.6813 260.244 16.1623C259.891 16.0982 259.795 14.142 259.795 13.7251H255.072V28.7009H260.309V19.8822C263.682 18.6636 267.215 18.0223 270.781 18.1826V13.3403H268.179ZM272.966 13.7251V28.7009H278.202V13.7251H272.966ZM272.966 7.18325V11.5766L273.223 11.8652H278.202V7.18325H272.966Z" fill="url(#paint4_linear_162_7)"/>
<path d="M52.8456 10.6145L63.8323 8.27356L64.7961 17.4771C64.8282 17.4771 64.8282 17.4771 64.8282 17.5092L70.3537 0L52.8456 10.6145Z" fill="url(#paint5_linear_162_7)"/>
</g>
<defs>
<linearGradient id="paint0_linear_162_7" x1="86.5855" y1="40.8679" x2="106.756" y2="40.8679" gradientUnits="userSpaceOnUse">
<stop stop-color="#937744"/>
<stop offset="0.0902" stop-color="#F2D170"/>
<stop offset="0.1721" stop-color="#EBCA6D"/>
<stop offset="0.2882" stop-color="#D7B766"/>
<stop offset="0.4172" stop-color="#BD9D5C"/>
<stop offset="0.9512" stop-color="#BD9E59"/>
</linearGradient>
<linearGradient id="paint1_linear_162_7" x1="304.903" y1="40.8666" x2="326.985" y2="40.8666" gradientUnits="userSpaceOnUse">
<stop stop-color="#937744"/>
<stop offset="0.0902" stop-color="#F2D170"/>
<stop offset="0.1721" stop-color="#EBCA6D"/>
<stop offset="0.2882" stop-color="#D7B766"/>
<stop offset="0.4172" stop-color="#BD9D5C"/>
<stop offset="0.9512" stop-color="#BD9E59"/>
</linearGradient>
<linearGradient id="paint2_linear_162_7" x1="-2.54003e-05" y1="28.8856" x2="71.0851" y2="28.8856" gradientUnits="userSpaceOnUse">
<stop stop-color="#937744"/>
<stop offset="0.0902" stop-color="#F2D170"/>
<stop offset="0.1721" stop-color="#EBCA6D"/>
<stop offset="0.2882" stop-color="#D7B766"/>
<stop offset="0.4172" stop-color="#BD9D5C"/>
<stop offset="0.9512" stop-color="#BD9E59"/>
</linearGradient>
<linearGradient id="paint3_linear_162_7" x1="-2.54003e-05" y1="28.8856" x2="71.0851" y2="28.8856" gradientUnits="userSpaceOnUse">
<stop stop-color="#937744"/>
<stop offset="0.0902" stop-color="#F2D170"/>
<stop offset="0.1721" stop-color="#EBCA6D"/>
<stop offset="0.2882" stop-color="#D7B766"/>
<stop offset="0.4172" stop-color="#BD9D5C"/>
<stop offset="0.9512" stop-color="#BD9E59"/>
</linearGradient>
<linearGradient id="paint4_linear_162_7" x1="220.945" y1="18.173" x2="326.985" y2="18.173" gradientUnits="userSpaceOnUse">
<stop stop-color="#937744"/>
<stop offset="0.0902" stop-color="#F2D170"/>
<stop offset="0.1721" stop-color="#EBCA6D"/>
<stop offset="0.2882" stop-color="#D7B766"/>
<stop offset="0.4172" stop-color="#BD9D5C"/>
<stop offset="0.9512" stop-color="#BD9E59"/>
</linearGradient>
<linearGradient id="paint5_linear_162_7" x1="52.8588" y1="8.76164" x2="70.3617" y2="8.76164" gradientUnits="userSpaceOnUse">
<stop stop-color="#937744"/>
<stop offset="0.0902" stop-color="#F2D170"/>
<stop offset="0.1721" stop-color="#EBCA6D"/>
<stop offset="0.2882" stop-color="#D7B766"/>
<stop offset="0.4172" stop-color="#BD9D5C"/>
<stop offset="0.9512" stop-color="#BD9E59"/>
</linearGradient>
<clipPath id="clip0_162_7">
<rect width="327" height="49" fill="white"/>
</clipPath>
</defs>
</svg>
