<svg width="65" height="24" viewBox="0 0 65 24" fill="none" xmlns="http://www.w3.org/2000/svg">
<mask id="mask0_198_553" style="mask-type:luminance" maskUnits="userSpaceOnUse" x="0" y="0" width="65" height="24">
<path d="M65 0H0V23.9474H65V0Z" fill="white"/>
</mask>
<g mask="url(#mask0_198_553)">
<path d="M36.8284 13.9282C36.8284 15.5453 36.2784 17.0667 35.0085 17.1216C33.5158 17.2032 33.3651 16.0221 33.3651 14.3313V8.15782H35.5761L35.5858 7.77198H33.3747L33.3651 5.33301H31.8723L31.8819 7.77354H30.766L30.7563 8.15939H31.8723V14.0584C31.8723 16.3374 32.9113 17.4635 34.5708 17.4635C36.5783 17.4635 37.109 15.7712 37.109 13.9219L36.9166 13.9298H36.8284V13.9282Z" fill="#EC2526"/>
</g>
<mask id="mask1_198_553" style="mask-type:luminance" maskUnits="userSpaceOnUse" x="0" y="0" width="65" height="24">
<path d="M65 0H0V23.9474H65V0Z" fill="white"/>
</mask>
<g mask="url(#mask1_198_553)">
<path d="M43.149 13.9282C43.149 15.5453 42.599 17.0667 41.3291 17.1216C39.8363 17.2032 39.6856 16.0221 39.6856 14.3313V8.15782H41.8967L41.9063 7.77198H39.6952L39.6856 5.33301H38.1929L38.2025 7.77354H37.0865L37.0769 8.15939H38.1929V14.0584C38.1929 16.3374 39.2319 17.4635 40.8914 17.4635C42.8988 17.4635 43.4295 15.7712 43.4295 13.9219L43.2371 13.9298H43.149V13.9282Z" fill="#EC2526"/>
</g>
<mask id="mask2_198_553" style="mask-type:luminance" maskUnits="userSpaceOnUse" x="0" y="0" width="65" height="24">
<path d="M65 0H0V23.9474H65V0Z" fill="white"/>
</mask>
<g mask="url(#mask2_198_553)">
<path d="M20.7703 8.53252C20.3583 8.12942 19.8708 7.78906 19.0771 7.78906C17.6389 7.78906 16.826 8.84935 16.5021 10.2861C16.4716 10.4241 16.478 10.4241 16.478 10.2829L16.4059 7.92395H14.873V17.4602H16.4059V14.2433C16.4283 12.1557 16.6224 8.85248 18.2754 8.58584C19.5229 8.40861 20.2829 9.5332 20.7719 10.5307V8.53252H20.7703Z" fill="white"/>
</g>
<mask id="mask3_198_553" style="mask-type:luminance" maskUnits="userSpaceOnUse" x="0" y="0" width="65" height="24">
<path d="M65 0H0V23.9474H65V0Z" fill="white"/>
</mask>
<g mask="url(#mask3_198_553)">
<path d="M26.7623 17.4538C29.015 17.3315 30.131 15.7834 30.7371 14.651L30.4405 14.4408C30.1342 15.0196 29.1882 16.8139 27.3331 17.0131C25.4106 17.2327 23.913 16.1975 23.214 14.1114C22.8933 13.1641 22.8356 12.0818 23.0648 11.0231H30.4918C30.2256 8.62179 28.0338 7.69168 26.4432 7.79363C24.3187 7.81402 21.3797 9.38406 21.4711 12.8425C21.5448 16.1018 24.3075 17.5683 26.7623 17.4538ZM25.5726 8.13085C27.4197 7.77011 28.8563 8.9245 29.1 10.6577L23.1514 10.6671C23.5122 9.31662 24.2818 8.39122 25.5726 8.13085Z" fill="white"/>
</g>
<mask id="mask4_198_553" style="mask-type:luminance" maskUnits="userSpaceOnUse" x="0" y="0" width="65" height="24">
<path d="M65 0H0V23.9474H65V0Z" fill="white"/>
</mask>
<g mask="url(#mask4_198_553)">
<path d="M45.918 7.98633H44.4397V17.4614H45.918V7.98633Z" fill="white"/>
</g>
<mask id="mask5_198_553" style="mask-type:luminance" maskUnits="userSpaceOnUse" x="0" y="0" width="65" height="24">
<path d="M65 0H0V23.9474H65V0Z" fill="white"/>
</mask>
<g mask="url(#mask5_198_553)">
<path d="M45.1805 7.1147C45.6808 7.1147 46.0752 6.71944 46.0752 6.23165C46.0752 5.75013 45.6776 5.35645 45.1805 5.35645C44.6835 5.35645 44.2778 5.75013 44.2778 6.23165C44.2778 6.71788 44.6835 7.1147 45.1805 7.1147Z" fill="white"/>
</g>
<mask id="mask6_198_553" style="mask-type:luminance" maskUnits="userSpaceOnUse" x="0" y="0" width="65" height="24">
<path d="M65 0H0V23.9474H65V0Z" fill="white"/>
</mask>
<g mask="url(#mask6_198_553)">
<path d="M48.4738 17.4604H49.9665V8.11703H51.2364V7.95862H49.9665V6.62228C49.9665 4.79345 50.6848 3.83825 52.0092 3.83825C53.138 3.83825 53.7874 4.59582 54.0856 5.56984L54.2171 5.51024C53.8756 4.42015 53.2567 3.64062 51.7431 3.64062C50.1525 3.64062 48.4722 4.61621 48.4722 7.01126V7.95862H47.3562V8.11546H48.4722V17.4604H48.4738Z" fill="white"/>
</g>
<mask id="mask7_198_553" style="mask-type:luminance" maskUnits="userSpaceOnUse" x="0" y="0" width="65" height="24">
<path d="M65 0H0V23.9474H65V0Z" fill="white"/>
</mask>
<g mask="url(#mask7_198_553)">
<path d="M60.1466 7.93516L59.7986 7.93359L56.8372 15.2332L56.8083 15.2411L53.8004 7.93516H52.3076L56.1605 17.4103C54.9692 19.5732 52.7822 19.523 52.4407 19.2109V20.5943C53.9912 21.1275 55.5096 20.2743 56.773 16.5084C57.392 18.8344 56.5245 21.0962 54.5812 22.1063C52.5337 23.1775 49.9586 22.6003 48.5861 20.7637C48.5476 20.6852 48.5204 20.6052 48.5011 20.5221C48.4097 20.1943 48.3456 19.4258 48.6118 19.1372C48.6711 19.0729 48.8266 18.9019 48.7144 18.7592C48.6182 18.6368 48.4226 18.6886 48.3328 18.7341C48.1612 18.8203 48.0586 18.9442 47.9913 19.0744C47.9271 18.8125 47.8117 18.56 47.584 18.3561C47.1366 17.953 46.5931 17.7491 46.1313 17.8118C46.0463 17.8244 45.971 17.8667 45.9309 17.9294C45.9084 17.9639 45.8972 18.0016 45.8972 18.0408C45.8908 18.0769 45.8924 18.1145 45.9052 18.1506C45.9293 18.218 45.9838 18.2745 46.0463 18.3027C46.529 18.5678 46.856 19.0305 47.1142 19.4493C47.4333 19.9512 47.7363 20.3966 48.1003 20.8938C48.1644 20.9785 48.2751 21.1119 48.328 21.1683C49.3012 22.376 50.8116 23.0944 52.3797 23.0944C52.3974 23.0944 52.415 23.0944 52.4327 23.0944C53.26 23.0866 54.0553 22.8858 54.7977 22.5C57.0809 21.3111 58.0157 18.5019 57.0232 15.8136L57.0392 15.7681V15.7665L57.0536 15.7304L60.1466 7.93516Z" fill="white"/>
</g>
<mask id="mask8_198_553" style="mask-type:luminance" maskUnits="userSpaceOnUse" x="0" y="0" width="65" height="24">
<path d="M65 0H0V23.9474H65V0Z" fill="white"/>
</mask>
<g mask="url(#mask8_198_553)">
<path d="M13.6658 7.8216C13.6658 5.07992 11.1837 3.85808 7.45262 3.85808H5.03149V11.3695C3.63333 11.117 2.87653 10.2025 2.48691 9.4779C1.48318 7.6428 1.68681 5.15364 2.46286 3.80789C3.50827 1.9822 5.87328 1.30775 7.57448 1.59949C7.65465 1.62772 7.73321 1.6638 7.80857 1.70771C8.11161 1.87868 8.71449 2.38059 8.73213 2.76957C8.73694 2.85426 8.75137 3.08169 8.93415 3.10522C9.08808 3.12718 9.18909 2.96719 9.22597 2.86368C9.28209 2.6833 9.26445 2.52489 9.21635 2.38529C9.45045 2.52645 9.7134 2.62684 10.0229 2.61429C10.6321 2.59547 11.1645 2.36647 11.4515 1.99945C11.4964 1.93671 11.5156 1.85986 11.5044 1.79084C11.4964 1.75006 11.4787 1.71399 11.4515 1.68419C11.4322 1.65282 11.4034 1.62772 11.3681 1.6089C11.304 1.57596 11.2206 1.57283 11.15 1.59635C10.6097 1.73752 10.0453 1.63713 9.56589 1.52263C9.01272 1.38775 8.47077 1.28423 7.8214 1.17287C7.73802 1.16032 7.55844 1.13836 7.45583 1.13679C5.67766 0.890542 3.23249 1.554 2.06361 3.58988C1.22985 5.03287 1.00858 7.71024 2.08445 9.69278C2.7194 10.8676 3.72954 11.6016 5.00424 11.8134L5.0331 11.8181V17.4614H6.52586V11.8055H7.45422C11.1837 11.8055 13.6658 10.5649 13.6658 7.8216ZM7.45262 11.393H6.52425V4.20942H7.45262C10.8614 4.20942 12.173 5.53007 12.173 7.82003C12.173 10.1131 10.8614 11.393 7.45262 11.393Z" fill="white"/>
</g>
</svg>
