<svg width="438" height="114" viewBox="0 0 438 114" fill="none" xmlns="http://www.w3.org/2000/svg">
<path d="M415.659 112.364L427.662 98.8051L437.716 109.794C437.742 109.798 437.742 109.798 437.782 109.791L428.165 81.8617L415.659 112.364Z" fill="#EBDEC3"/>
<path d="M369.475 110.503L381.478 96.9435L391.531 107.932C391.557 107.936 391.557 107.936 391.598 107.929L381.981 80L369.475 110.503Z" fill="#EBDEC3"/>
<path d="M323.291 113.641L335.293 100.082L345.347 111.071C345.373 111.074 345.373 111.074 345.414 111.067L335.796 83.1383L323.291 113.641Z" fill="#EBDEC3"/>
<path d="M277.106 111.779L289.109 98.2201L299.162 109.209C299.188 109.213 299.188 109.213 299.229 109.206L289.612 81.2766L277.106 111.779Z" fill="#EBDEC3"/>
<path d="M230.922 112.917L242.924 99.3584L252.978 110.347C253.004 110.351 253.004 110.351 253.045 110.344L243.427 82.4149L230.922 112.917Z" fill="#EBDEC3"/>
<path d="M184.738 113.056L196.74 99.4967L206.794 110.485C206.82 110.489 206.82 110.489 206.86 110.482L197.243 82.5532L184.738 113.056Z" fill="#EBDEC3"/>
<path d="M138.553 113.194L150.556 99.635L160.609 110.624C160.635 110.628 160.635 110.628 160.676 110.62L151.059 82.6915L138.553 113.194Z" fill="#EBDEC3"/>
<path d="M92.3688 112.332L104.371 98.7733L114.425 109.762C114.451 109.766 114.451 109.766 114.492 109.759L104.874 81.8298L92.3688 112.332Z" fill="#EBDEC3"/>
<path d="M46.1844 114.471L58.1868 100.912L68.2405 111.9C68.2664 111.904 68.2664 111.904 68.3073 111.897L58.6898 83.9681L46.1844 114.471Z" fill="#EBDEC3"/>
<path d="M0 114.609L12.0025 101.05L22.0561 112.039C22.082 112.043 22.082 112.043 22.1229 112.035L12.5054 84.1064L0 114.609Z" fill="#EBDEC3"/>
<path d="M415.659 72.3643L427.662 58.8051L437.716 69.7939C437.742 69.7978 437.742 69.7978 437.782 69.7906L428.165 41.8617L415.659 72.3643Z" fill="#EBDEC3"/>
<path d="M369.475 70.5026L381.478 56.9435L391.531 67.9323C391.557 67.9361 391.557 67.9361 391.598 67.929L381.981 40L369.475 70.5026Z" fill="#EBDEC3"/>
<path d="M323.291 73.6409L335.293 60.0818L345.347 71.0706C345.373 71.0744 345.373 71.0744 345.414 71.0673L335.796 43.1383L323.291 73.6409Z" fill="#EBDEC3"/>
<path d="M277.106 71.7792L289.109 58.2201L299.162 69.2089C299.188 69.2127 299.188 69.2127 299.229 69.2056L289.612 41.2766L277.106 71.7792Z" fill="#EBDEC3"/>
<path d="M230.922 72.9175L242.924 59.3584L252.978 70.3472C253.004 70.351 253.004 70.351 253.045 70.3439L243.427 42.4149L230.922 72.9175Z" fill="#EBDEC3"/>
<path d="M184.738 73.0558L196.74 59.4967L206.794 70.4855C206.82 70.4893 206.82 70.4893 206.86 70.4822L197.243 42.5532L184.738 73.0558Z" fill="#EBDEC3"/>
<path d="M138.553 73.1941L150.556 59.635L160.609 70.6238C160.635 70.6276 160.635 70.6276 160.676 70.6205L151.059 42.6915L138.553 73.1941Z" fill="#EBDEC3"/>
<path d="M92.3688 72.3324L104.371 58.7733L114.425 69.7621C114.451 69.766 114.451 69.766 114.492 69.7588L104.874 41.8298L92.3688 72.3324Z" fill="#EBDEC3"/>
<path d="M46.1844 74.4707L58.1868 60.9116L68.2405 71.9004C68.2664 71.9043 68.2664 71.9043 68.3073 71.8971L58.6898 43.9681L46.1844 74.4707Z" fill="#EBDEC3"/>
<path d="M0 74.609L12.0025 61.0499L22.0561 72.0387C22.082 72.0426 22.082 72.0426 22.1229 72.0354L12.5054 44.1064L0 74.609Z" fill="#EBDEC3"/>
<path d="M415.659 32.3643L427.662 18.8051L437.716 29.7939C437.742 29.7978 437.742 29.7978 437.782 29.7906L428.165 1.86169L415.659 32.3643Z" fill="#EBDEC3"/>
<path d="M369.475 30.5026L381.478 16.9435L391.531 27.9322C391.557 27.9361 391.557 27.9361 391.598 27.929L381.981 0L369.475 30.5026Z" fill="#EBDEC3"/>
<path d="M323.291 33.6409L335.293 20.0818L345.347 31.0706C345.373 31.0744 345.373 31.0744 345.414 31.0673L335.796 3.13831L323.291 33.6409Z" fill="#EBDEC3"/>
<path d="M277.106 31.7792L289.109 18.2201L299.162 29.2089C299.188 29.2127 299.188 29.2127 299.229 29.2056L289.612 1.27661L277.106 31.7792Z" fill="#EBDEC3"/>
<path d="M230.922 32.9175L242.924 19.3584L252.978 30.3472C253.004 30.351 253.004 30.351 253.045 30.3439L243.427 2.41492L230.922 32.9175Z" fill="#EBDEC3"/>
<path d="M184.738 33.0558L196.74 19.4967L206.794 30.4855C206.82 30.4893 206.82 30.4893 206.86 30.4822L197.243 2.55322L184.738 33.0558Z" fill="#EBDEC3"/>
<path d="M138.553 33.1941L150.556 19.635L160.609 30.6238C160.635 30.6276 160.635 30.6276 160.676 30.6205L151.059 2.69153L138.553 33.1941Z" fill="#EBDEC3"/>
<path d="M92.3688 32.3324L104.371 18.7733L114.425 29.7621C114.451 29.7659 114.451 29.766 114.492 29.7588L104.874 1.82983L92.3688 32.3324Z" fill="#EBDEC3"/>
<path d="M46.1844 34.4707L58.1868 20.9116L68.2405 31.9004C68.2664 31.9043 68.2664 31.9043 68.3073 31.8971L58.6898 3.96814L46.1844 34.4707Z" fill="#EBDEC3"/>
<path d="M0 34.609L12.0025 21.0499L22.0561 32.0387C22.082 32.0426 22.082 32.0426 22.1229 32.0354L12.5054 4.10645L0 34.609Z" fill="#EBDEC3"/>
</svg>
