<svg width="54" height="54" viewBox="0 0 54 54" fill="none" xmlns="http://www.w3.org/2000/svg">
<path d="M8 23.4185C8 16.8004 8 13.4914 8.78225 12.378C9.56243 11.2667 12.6728 10.201 18.8956 8.07151L20.0814 7.6659C23.3242 6.55461 24.9446 6 26.625 6C28.3054 6 29.9258 6.55461 33.1686 7.6659L34.3544 8.07151C40.5772 10.201 43.6876 11.2667 44.4677 12.378C45.25 13.4914 45.25 16.8025 45.25 23.4185V26.6758C45.25 38.3433 36.4776 44.0074 30.9729 46.41C29.4808 47.0619 28.7358 47.3889 26.625 47.3889C24.5142 47.3889 23.7692 47.0619 22.2771 46.41C16.7724 44.0053 8 38.3454 8 26.6758V23.4185Z" stroke="#C39739" stroke-width="2"/>
<path d="M21.4514 27.5223L24.4087 30.8334L31.7986 22.5557" stroke="#C39739" stroke-width="2" stroke-linecap="round" stroke-linejoin="round"/>
</svg>
