<svg width="24" height="24" viewBox="0 0 24 24" fill="none" xmlns="http://www.w3.org/2000/svg">
<path d="M2.14258 6.24837C2.14258 4.31274 2.14258 3.34493 2.74496 2.74497C3.34405 2.14282 4.31224 2.14282 6.24972 2.14282C8.1872 2.14282 9.15429 2.14282 9.75448 2.74497C10.3569 3.34493 10.3569 4.31274 10.3569 6.24837C10.3569 8.184 10.3569 9.15181 9.75448 9.75177C9.15429 10.3539 8.1861 10.3539 6.24972 10.3539C4.31334 10.3539 3.34515 10.3539 2.74496 9.75177C2.14258 9.15291 2.14258 8.18509 2.14258 6.24837ZM2.14258 17.7516C2.14258 15.8159 2.14258 14.8481 2.74496 14.2482C3.34515 13.646 4.31334 13.646 6.24972 13.646C8.1861 13.646 9.15429 13.646 9.75448 14.2482C10.3569 14.8481 10.3569 15.8159 10.3569 17.7516C10.3569 19.6872 10.3569 20.655 9.75448 21.255C9.15429 21.8571 8.1861 21.8571 6.24972 21.8571C4.31334 21.8571 3.34515 21.8571 2.74496 21.255C2.14258 20.6561 2.14258 19.6872 2.14258 17.7516ZM13.6426 6.24837C13.6426 4.31274 13.6426 3.34493 14.245 2.74497C14.8452 2.14282 15.8133 2.14282 17.7497 2.14282C19.6861 2.14282 20.6543 2.14282 21.2545 2.74497C21.8569 3.34493 21.8569 4.31274 21.8569 6.24837C21.8569 8.184 21.8569 9.15181 21.2545 9.75177C20.6543 10.3539 19.6861 10.3539 17.7497 10.3539C15.8133 10.3539 14.8452 10.3539 14.245 9.75177C13.6426 9.15181 13.6426 8.184 13.6426 6.24837ZM13.6426 17.7516C13.6426 15.8159 13.6426 14.8481 14.245 14.2482C14.8452 13.646 15.8133 13.646 17.7497 13.646C19.6861 13.646 20.6543 13.646 21.2545 14.2482C21.8569 14.8481 21.8569 15.8159 21.8569 17.7516C21.8569 19.6872 21.8569 20.655 21.2545 21.255C20.6543 21.8571 19.6861 21.8571 17.7497 21.8571C15.8133 21.8571 14.8452 21.8571 14.245 21.255C13.6426 20.655 13.6426 19.6872 13.6426 17.7516Z" stroke="black" stroke-linecap="round" stroke-linejoin="round"/>
</svg>
