<svg width="54" height="54" viewBox="0 0 54 54" fill="none" xmlns="http://www.w3.org/2000/svg">
<path d="M26.3294 44.8693C26.6234 44.8693 26.9249 44.8033 27.2339 44.6713C27.5429 44.5393 27.7927 44.378 27.9832 44.1875L45.5242 26.6443C46.0897 26.0788 46.5262 25.5013 46.8337 24.9118C47.1397 24.3193 47.2927 23.6698 47.2927 22.9633C47.2927 22.2478 47.1397 21.5533 46.8337 20.8798C46.5262 20.2048 46.0897 19.5898 45.5242 19.0348L37.0867 10.5973C36.5302 10.0318 35.9579 9.61703 35.3699 9.35303C34.7834 9.08903 34.1324 8.95703 33.4169 8.95703C32.7104 8.95703 32.0542 9.08903 31.4482 9.35303C30.8422 9.61703 30.2714 10.031 29.7359 10.595L27.7739 12.557L31.9364 16.7308C32.3834 17.1703 32.7172 17.6698 32.9377 18.2293C33.1567 18.7888 33.2662 19.3565 33.2662 19.9325C33.2662 21.104 32.8829 22.073 32.1164 22.8395C31.3499 23.606 30.3817 23.9885 29.2117 23.987C28.6342 23.987 28.0709 23.8993 27.5219 23.7238C26.9729 23.5483 26.4787 23.2408 26.0392 22.8013L22.7294 19.5073C22.4699 19.2478 22.1384 19.118 21.7349 19.118C21.3299 19.118 20.9977 19.2478 20.7382 19.5073L12.0194 28.226C11.7929 28.454 11.6227 28.7128 11.5087 29.0023C11.3947 29.2918 11.3377 29.5843 11.3377 29.8798C11.3377 30.4108 11.5079 30.848 11.8484 31.1915C12.1874 31.5365 12.6224 31.709 13.1534 31.709C13.4474 31.709 13.7489 31.643 14.0579 31.511C14.3669 31.3775 14.6167 31.2155 14.8072 31.025L21.1409 24.6913C21.3509 24.4813 21.6074 24.3665 21.9104 24.347C22.2134 24.3275 22.4879 24.4423 22.7339 24.6913C22.9739 24.9313 23.0939 25.1968 23.0939 25.4878C23.0939 25.7788 22.9739 26.0443 22.7339 26.2843L16.4114 32.618C16.1834 32.846 16.0124 33.1048 15.8984 33.3943C15.7859 33.6853 15.7297 33.9778 15.7297 34.2718C15.7297 34.7743 15.9067 35.2025 16.2607 35.5565C16.6147 35.9105 17.0429 36.0883 17.5454 36.0898C17.8394 36.0898 18.1409 36.023 18.4499 35.8895C18.7589 35.756 19.0087 35.5948 19.1992 35.4058L26.0527 28.5658C26.2627 28.3543 26.5184 28.2388 26.8199 28.2193C27.1214 28.1998 27.3959 28.3145 27.6434 28.5635C27.8834 28.8035 28.0034 29.069 28.0034 29.36C28.0034 29.651 27.8834 29.9165 27.6434 30.1565L20.8034 37.01C20.6054 37.2005 20.4419 37.4503 20.3129 37.7593C20.1839 38.0683 20.1194 38.3698 20.1194 38.6638C20.1194 39.1648 20.2972 39.5923 20.6527 39.9463C21.0082 40.3033 21.4364 40.4818 21.9374 40.4818C22.2314 40.4818 22.5239 40.4248 22.8149 40.3108C23.1059 40.1968 23.3639 40.0258 23.5889 39.7978L30.4447 32.9578C30.6547 32.7463 30.9104 32.6308 31.2119 32.6113C31.5134 32.5933 31.7887 32.708 32.0377 32.9555C32.2762 33.1955 32.3954 33.461 32.3954 33.752C32.3954 34.043 32.2754 34.3085 32.0354 34.5485L25.1842 41.3998C24.9577 41.6278 24.7874 41.9015 24.6734 42.221C24.5594 42.5405 24.5024 42.8323 24.5024 43.0963C24.5024 43.6273 24.6892 44.0555 25.0627 44.381C25.4362 44.7065 25.8592 44.8693 26.3317 44.8693M26.3182 47.1193C25.1617 47.1193 24.1717 46.6963 23.3482 45.8503C22.5247 45.0043 22.1632 43.9588 22.2637 42.7138C20.9887 42.7288 19.9274 42.3485 19.0799 41.573C18.2324 40.7975 17.8297 39.7145 17.8717 38.324C16.4827 38.339 15.3877 37.9415 14.5867 37.1315C13.7857 36.3215 13.4212 35.255 13.4932 33.932C12.2422 33.947 11.1952 33.5945 10.3522 32.8745C9.5107 32.1575 9.08995 31.1585 9.08995 29.8775C9.08995 29.3 9.2017 28.7225 9.4252 28.145C9.6487 27.566 9.9787 27.0575 10.4152 26.6195L19.1789 17.8558C19.8689 17.1673 20.7194 16.823 21.7304 16.823C22.7414 16.823 23.5919 17.168 24.2819 17.858L27.5467 21.1228C27.7372 21.3223 27.9727 21.4865 28.2532 21.6155C28.5337 21.7445 28.8494 21.8083 29.2004 21.8068C29.6819 21.8068 30.1072 21.6388 30.4762 21.3028C30.8452 20.9668 31.0304 20.5288 31.0319 19.9888C31.0319 19.6378 30.9674 19.3228 30.8384 19.0438C30.7094 18.7633 30.5459 18.5278 30.3479 18.3373L22.6079 10.5973C22.0499 10.0318 21.4702 9.61703 20.8687 9.35303C20.2672 9.08903 19.6087 8.95703 18.8932 8.95703C18.1867 8.95703 17.5447 9.08903 16.9672 9.35303C16.3912 9.61703 15.8204 10.0318 15.2549 10.5973L8.4037 17.4598C7.6177 18.2443 7.1122 19.202 6.8872 20.333C6.6622 21.464 6.76495 22.544 7.19545 23.573C7.27945 23.864 7.24195 24.1453 7.08295 24.4168C6.92395 24.6883 6.69895 24.8608 6.40795 24.9343C6.11695 25.0078 5.8282 24.9688 5.5417 24.8173C5.2552 24.6658 5.0752 24.443 5.0017 24.149C4.5172 22.694 4.41145 21.2248 4.68445 19.7413C4.95745 18.2578 5.66245 16.9475 6.79945 15.8105L13.6034 9.00428C14.3879 8.22728 15.2182 7.64978 16.0942 7.27178C16.9702 6.89528 17.9174 6.70703 18.9359 6.70703C19.9544 6.70703 20.8934 6.89603 21.7529 7.27403C22.6139 7.65053 23.4329 8.22728 24.2099 9.00428L26.1674 10.964L28.1294 9.00428C28.9139 8.22728 29.7367 7.64978 30.5977 7.27178C31.4587 6.89528 32.3984 6.70703 33.4169 6.70703C34.4354 6.70703 35.3827 6.89603 36.2587 7.27403C37.1332 7.65053 37.9582 8.22728 38.7337 9.00428L47.1172 17.3855C47.8927 18.161 48.4912 19.0318 48.9127 19.9978C49.3342 20.9638 49.5442 21.956 49.5427 22.9745C49.5427 23.9945 49.3327 24.9343 48.9127 25.7938C48.4927 26.6533 47.8942 27.4723 47.1172 28.2508L29.5739 45.7783C29.1074 46.2463 28.5989 46.5868 28.0484 46.7998C27.4994 47.0128 26.9242 47.1193 26.3182 47.1193Z" fill="#C39739"/>
</svg>
