<svg width="20" height="20" viewBox="0 0 20 20" fill="none" xmlns="http://www.w3.org/2000/svg">
<path d="M14.4501 4.55033C14.2523 4.55033 14.059 4.60897 13.8945 4.71886C13.7301 4.82874 13.6019 4.98492 13.5262 5.16764C13.4505 5.35037 13.4307 5.55143 13.4693 5.74542C13.5079 5.9394 13.6031 6.11758 13.743 6.25743C13.8828 6.39728 14.061 6.49253 14.255 6.53111C14.449 6.5697 14.65 6.54989 14.8328 6.47421C15.0155 6.39852 15.1717 6.27034 15.2816 6.1059C15.3914 5.94145 15.4501 5.74811 15.4501 5.55033C15.4501 5.28511 15.3447 5.03076 15.1572 4.84322C14.9697 4.65568 14.7153 4.55033 14.4501 4.55033ZM18.2834 6.56699C18.2672 5.87557 18.1377 5.19149 17.9001 4.54199C17.6882 3.98627 17.3584 3.48306 16.9334 3.06699C16.5208 2.63985 16.0164 2.31214 15.4584 2.10866C14.8106 1.86379 14.1258 1.73133 13.4334 1.71699C12.5501 1.66699 12.2667 1.66699 10.0001 1.66699C7.73341 1.66699 7.45008 1.66699 6.56675 1.71699C5.87437 1.73133 5.18953 1.86379 4.54175 2.10866C3.98481 2.3142 3.48086 2.64163 3.06675 3.06699C2.6396 3.47964 2.3119 3.98403 2.10841 4.54199C1.86355 5.18978 1.73109 5.87462 1.71675 6.56699C1.66675 7.45033 1.66675 7.73366 1.66675 10.0003C1.66675 12.267 1.66675 12.5503 1.71675 13.4337C1.73109 14.126 1.86355 14.8109 2.10841 15.4587C2.3119 16.0166 2.6396 16.521 3.06675 16.9337C3.48086 17.359 3.98481 17.6865 4.54175 17.892C5.18953 18.1369 5.87437 18.2693 6.56675 18.2837C7.45008 18.3337 7.73341 18.3337 10.0001 18.3337C12.2667 18.3337 12.5501 18.3337 13.4334 18.2837C14.1258 18.2693 14.8106 18.1369 15.4584 17.892C16.0164 17.6885 16.5208 17.3608 16.9334 16.9337C17.3603 16.5191 17.6904 16.0155 17.9001 15.4587C18.1377 14.8092 18.2672 14.1251 18.2834 13.4337C18.2834 12.5503 18.3334 12.267 18.3334 10.0003C18.3334 7.73366 18.3334 7.45033 18.2834 6.56699ZM16.7834 13.3337C16.7773 13.8626 16.6815 14.3867 16.5001 14.8837C16.367 15.2463 16.1533 15.574 15.8751 15.842C15.6048 16.1174 15.2778 16.3307 14.9167 16.467C14.4198 16.6485 13.8957 16.7443 13.3667 16.7503C12.5334 16.792 12.2251 16.8003 10.0334 16.8003C7.84175 16.8003 7.53341 16.8003 6.70008 16.7503C6.15082 16.7606 5.60391 16.676 5.08341 16.5003C4.73823 16.3571 4.42621 16.1443 4.16675 15.8753C3.89016 15.6076 3.67912 15.2797 3.55008 14.917C3.34663 14.413 3.23378 13.8769 3.21675 13.3337C3.21675 12.5003 3.16675 12.192 3.16675 10.0003C3.16675 7.80866 3.16675 7.50033 3.21675 6.66699C3.22048 6.1262 3.31921 5.59028 3.50841 5.08366C3.65512 4.73192 3.8803 4.41837 4.16675 4.16699C4.41993 3.88047 4.73282 3.65291 5.08341 3.50033C5.59137 3.31703 6.12675 3.22123 6.66675 3.21699C7.50008 3.21699 7.80841 3.16699 10.0001 3.16699C12.1917 3.16699 12.5001 3.16699 13.3334 3.21699C13.8624 3.22306 14.3865 3.31886 14.8834 3.50033C15.2621 3.64087 15.602 3.86936 15.8751 4.16699C16.1482 4.42297 16.3615 4.73594 16.5001 5.08366C16.6853 5.5911 16.7812 6.12681 16.7834 6.66699C16.8251 7.50033 16.8334 7.80866 16.8334 10.0003C16.8334 12.192 16.8251 12.5003 16.7834 13.3337ZM10.0001 5.72533C9.15492 5.72697 8.32922 5.9791 7.62729 6.44984C6.92537 6.92058 6.37873 7.58882 6.05644 8.37012C5.73416 9.15142 5.65068 10.0107 5.81658 10.8394C5.98247 11.6682 6.39028 12.4291 6.98848 13.0261C7.58668 13.6232 8.34842 14.0295 9.17746 14.1938C10.0065 14.3581 10.8656 14.2729 11.6463 13.9491C12.427 13.6253 13.0941 13.0774 13.5635 12.3745C14.0329 11.6717 14.2834 10.8455 14.2834 10.0003C14.2845 9.43791 14.1744 8.88083 13.9594 8.36112C13.7445 7.84141 13.4289 7.36933 13.0308 6.97203C12.6327 6.57474 12.16 6.26006 11.6399 6.0461C11.1198 5.83214 10.5625 5.72313 10.0001 5.72533ZM10.0001 12.7753C9.45124 12.7753 8.91472 12.6126 8.45837 12.3077C8.00203 12.0027 7.64635 11.5693 7.43632 11.0623C7.22628 10.5552 7.17133 9.99725 7.2784 9.45895C7.38548 8.92065 7.64977 8.42619 8.03786 8.0381C8.42595 7.65001 8.92041 7.38572 9.45871 7.27865C9.997 7.17157 10.555 7.22653 11.062 7.43656C11.5691 7.64659 12.0025 8.00227 12.3074 8.45862C12.6123 8.91496 12.7751 9.45148 12.7751 10.0003C12.7751 10.3647 12.7033 10.7256 12.5638 11.0623C12.4244 11.399 12.22 11.7049 11.9623 11.9625C11.7046 12.2202 11.3987 12.4246 11.062 12.5641C10.7253 12.7035 10.3645 12.7753 10.0001 12.7753Z" fill="white"/>
</svg>
