<svg width="20" height="20" viewBox="0 0 20 20" fill="none" xmlns="http://www.w3.org/2000/svg">
<path d="M14.1665 18.3334C13.4721 18.3334 12.8818 18.0903 12.3957 17.6042C11.9096 17.1181 11.6665 16.5278 11.6665 15.8334C11.6665 15.75 11.6873 15.5556 11.729 15.25L5.87484 11.8334C5.65262 12.0417 5.39567 12.205 5.104 12.3234C4.81234 12.4417 4.49984 12.5006 4.1665 12.5C3.47206 12.5 2.88178 12.257 2.39567 11.7709C1.90956 11.2847 1.6665 10.6945 1.6665 10C1.6665 9.30558 1.90956 8.7153 2.39567 8.22919C2.88178 7.74308 3.47206 7.50002 4.1665 7.50002C4.49984 7.50002 4.81234 7.55919 5.104 7.67752C5.39567 7.79585 5.65262 7.95891 5.87484 8.16669L11.729 4.75002C11.7012 4.6528 11.684 4.55919 11.6773 4.46919C11.6707 4.37919 11.6671 4.27835 11.6665 4.16669C11.6665 3.47224 11.9096 2.88196 12.3957 2.39585C12.8818 1.90974 13.4721 1.66669 14.1665 1.66669C14.8609 1.66669 15.4512 1.90974 15.9373 2.39585C16.4234 2.88196 16.6665 3.47224 16.6665 4.16669C16.6665 4.86113 16.4234 5.45141 15.9373 5.93752C15.4512 6.42363 14.8609 6.66669 14.1665 6.66669C13.8332 6.66669 13.5207 6.60752 13.229 6.48919C12.9373 6.37085 12.6804 6.2078 12.4582 6.00002L6.604 9.41669C6.63178 9.51391 6.64928 9.6078 6.6565 9.69835C6.66373 9.78891 6.66706 9.88946 6.6665 10C6.66595 10.1106 6.66261 10.2114 6.6565 10.3025C6.65039 10.3936 6.63289 10.4872 6.604 10.5834L12.4582 14C12.6804 13.7917 12.9373 13.6286 13.229 13.5109C13.5207 13.3931 13.8332 13.3339 14.1665 13.3334C14.8609 13.3334 15.4512 13.5764 15.9373 14.0625C16.4234 14.5486 16.6665 15.1389 16.6665 15.8334C16.6665 16.5278 16.4234 17.1181 15.9373 17.6042C15.4512 18.0903 14.8609 18.3334 14.1665 18.3334Z" fill="black"/>
</svg>
