<svg width="24" height="24" viewBox="0 0 24 24" fill="none" xmlns="http://www.w3.org/2000/svg">
<path d="M8 7H4C3.46957 7 2.96086 7.21071 2.58579 7.58579C2.21071 7.96086 2 8.46957 2 9V19C2 19.5304 2.21071 20.0391 2.58579 20.4142C2.96086 20.7893 3.46957 21 4 21H20C20.5304 21 21.0391 20.7893 21.4142 20.4142C21.7893 20.0391 22 19.5304 22 19V9C22 8.46957 21.7893 7.96086 21.4142 7.58579C21.0391 7.21071 20.5304 7 20 7H16M8 7V3.6C8 3.44087 8.06321 3.28826 8.17574 3.17574C8.28826 3.06321 8.44087 3 8.6 3H15.4C15.5591 3 15.7117 3.06321 15.8243 3.17574C15.9368 3.28826 16 3.44087 16 3.6V7M8 7H16" stroke="black"/>
</svg>
