<svg width="24" height="24" viewBox="0 0 24 24" fill="none" xmlns="http://www.w3.org/2000/svg">
<path d="M16.3 6.8C16.3 5.0083 16.3 4.1134 15.7433 3.5567C15.1866 3 14.2917 3 12.5 3C10.7083 3 9.8134 3 9.2567 3.5567C8.7 4.1134 8.7 5.0083 8.7 6.8M3 14.4C3 10.8175 3 9.02585 4.1134 7.9134C5.2268 6.80095 7.01755 6.8 10.6 6.8H14.4C17.9824 6.8 19.7741 6.8 20.8866 7.9134C21.999 9.0268 22 10.8175 22 14.4C22 17.9824 22 19.7741 20.8866 20.8866C19.7732 21.999 17.9824 22 14.4 22H10.6C7.01755 22 5.22585 22 4.1134 20.8866C3.00095 19.7732 3 17.9824 3 14.4Z" stroke="#AA8D4D" stroke-width="1.5"/>
<path d="M17.25 9.65001C17.25 9.90197 17.1499 10.1436 16.9718 10.3218C16.7936 10.4999 16.552 10.6 16.3 10.6C16.048 10.6 15.8064 10.4999 15.6282 10.3218C15.4501 10.1436 15.35 9.90197 15.35 9.65001C15.35 9.39806 15.4501 9.15642 15.6282 8.97826C15.8064 8.8001 16.048 8.70001 16.3 8.70001C16.552 8.70001 16.7936 8.8001 16.9718 8.97826C17.1499 9.15642 17.25 9.39806 17.25 9.65001ZM9.65 9.65001C9.65 9.90197 9.54991 10.1436 9.37175 10.3218C9.19359 10.4999 8.95196 10.6 8.7 10.6C8.44804 10.6 8.20641 10.4999 8.02825 10.3218C7.85009 10.1436 7.75 9.90197 7.75 9.65001C7.75 9.39806 7.85009 9.15642 8.02825 8.97826C8.20641 8.8001 8.44804 8.70001 8.7 8.70001C8.95196 8.70001 9.19359 8.8001 9.37175 8.97826C9.54991 9.15642 9.65 9.39806 9.65 9.65001Z" fill="#AA8D4D"/>
</svg>
