<svg width="54" height="54" viewBox="0 0 54 54" fill="none" xmlns="http://www.w3.org/2000/svg">
<path d="M45.9913 18.6501C48.1861 23.2358 48.5985 28.4736 47.1486 33.3464C45.6987 38.2192 42.4899 42.3794 38.1452 45.0194C33.8004 47.6593 28.6297 48.5907 23.6369 47.6327C18.644 46.6746 14.1853 43.8955 11.1263 39.8348C8.06724 35.7742 6.62621 30.7217 7.08293 25.6584C7.53964 20.595 9.86152 15.8819 13.5978 12.4342C17.334 8.98651 22.2181 7.05011 27.3018 7.00096C32.3855 6.95181 37.3061 8.79341 41.1083 12.1682L45.929 7.34755C46.1558 7.1247 46.4614 7.00049 46.7794 7.00197C47.0973 7.00345 47.4018 7.1305 47.6264 7.35545C47.8511 7.58039 47.9778 7.88501 47.9789 8.20294C47.98 8.52088 47.8555 8.82637 47.6323 9.05287L28.3496 28.3356C28.238 28.449 28.105 28.5391 27.9583 28.6008C27.8117 28.6624 27.6543 28.6945 27.4952 28.695C27.3361 28.6956 27.1785 28.6646 27.0314 28.604C26.8844 28.5433 26.7508 28.4541 26.6383 28.3416C26.5259 28.229 26.4369 28.0953 26.3764 27.9482C26.3159 27.801 26.2851 27.6434 26.2859 27.4843C26.2866 27.3252 26.3188 27.1678 26.3807 27.0212C26.4426 26.8747 26.5328 26.7418 26.6463 26.6303L32.5496 20.725C31.0115 19.5748 29.127 18.984 27.2076 19.05C25.2882 19.116 23.4488 19.835 21.9934 21.088C20.5379 22.3411 19.5536 24.0533 19.2031 25.9416C18.8526 27.8299 19.1569 29.7812 20.0657 31.4731C20.9745 33.1651 22.4333 34.4963 24.2012 35.2467C25.969 35.9972 27.94 36.1219 29.7884 35.6004C31.6368 35.0789 33.2519 33.9423 34.3668 32.3785C35.4817 30.8147 36.0297 28.9173 35.9201 26.9999C35.902 26.6803 36.0116 26.3665 36.2248 26.1277C36.438 25.8889 36.7373 25.7445 37.057 25.7264C37.3766 25.7083 37.6903 25.8179 37.9291 26.0311C38.168 26.2443 38.3123 26.5437 38.3304 26.8633C38.475 29.3436 37.7637 31.7984 36.3155 33.8171C34.8673 35.8359 32.7699 37.2963 30.374 37.9541C27.9782 38.6119 25.4291 38.4272 23.1531 37.431C20.8771 36.4348 19.012 34.6874 17.8698 32.481C16.7277 30.2746 16.3776 27.7429 16.8781 25.3094C17.3787 22.8758 18.6995 20.6878 20.6198 19.1113C22.5401 17.5348 24.9434 16.6654 27.4278 16.6483C29.9123 16.6313 32.3273 17.4676 34.269 19.0176L39.399 13.8856C36.0284 10.9465 31.6872 9.36254 27.2158 9.44035C22.7444 9.51817 18.461 11.2522 15.1947 14.3068C11.9284 17.3614 9.91158 21.5193 9.53477 25.9755C9.15796 30.4316 10.4479 34.8691 13.1549 38.4288C15.8619 41.9885 19.7934 44.4172 24.1882 45.2447C28.583 46.0723 33.1286 45.2398 36.9449 42.9084C40.7611 40.577 43.5767 36.9126 44.8464 32.6245C46.1161 28.3365 45.7496 23.7299 43.818 19.6965C43.7493 19.5538 43.7093 19.399 43.7005 19.2409C43.6916 19.0827 43.7139 18.9244 43.7663 18.7749C43.8186 18.6254 43.8998 18.4877 44.0054 18.3696C44.1109 18.2515 44.2387 18.1554 44.3814 18.0866C44.5241 18.0179 44.6789 17.978 44.8371 17.9691C44.9952 17.9602 45.1535 17.9826 45.303 18.0349C45.4525 18.0872 45.5903 18.1685 45.7083 18.274C45.8264 18.3796 45.9226 18.5074 45.9913 18.6501Z" fill="#C39739"/>
</svg>
